<?xml version="1.0" standalone="no"?>
<!DOCTYPE svg PUBLIC "-//W3C//DTD SVG 20010904//EN"
 "http://www.w3.org/TR/2001/REC-SVG-20010904/DTD/svg10.dtd">
<svg version="1.0" xmlns="http://www.w3.org/2000/svg"
 width="260.000000pt" height="260.000000pt" viewBox="0 0 260.000000 260.000000"
 preserveAspectRatio="xMidYMid meet">
<metadata>
Created by potrace 1.14, written by Peter Selinger 2001-2017
</metadata>
<g transform="translate(0.000000,260.000000) scale(0.100000,-0.100000)"
fill="#000000" stroke="none">
<path d="M1137 2553 c-10 -9 -33 -13 -89 -15 -27 -1 -48 -4 -48 -7 0 -3 -10
-6 -22 -7 -13 0 -34 -4 -48 -7 -14 -3 -35 -8 -46 -11 -20 -4 -89 -32 -144 -59
-24 -12 -65 -47 -55 -47 9 0 -46 -83 -81 -122 -18 -20 -35 -34 -37 -31 -11 10
-35 -43 -32 -69 2 -16 -1 -30 -5 -33 -5 -3 -7 -14 -5 -25 2 -11 1 -20 -4 -20
-4 0 -8 -11 -9 -25 -4 -54 -5 -60 -14 -72 -5 -7 -7 -17 -4 -22 4 -5 2 -12 -4
-16 -5 -3 -10 -16 -10 -28 0 -12 -1 -33 -3 -47 -3 -14 0 -33 5 -42 5 -11 5
-18 -1 -18 -12 0 -2 -72 11 -86 4 -3 4 -12 2 -19 -6 -15 37 -94 71 -131 25
-27 33 -54 17 -54 -17 0 -32 -52 -32 -110 0 -33 3 -60 8 -60 13 0 12 -62 -3
-76 -7 -8 -16 -14 -20 -14 -20 0 -101 -84 -130 -134 -27 -47 -31 -64 -24 -83
5 -15 5 -22 0 -18 -13 8 -2 -62 15 -100 8 -16 27 -44 42 -61 37 -42 89 -39
132 7 16 18 32 30 35 27 6 -5 11 -37 21 -118 9 -74 11 -84 16 -100 3 -8 11
-41 18 -73 11 -56 38 -117 51 -117 3 0 5 -11 4 -25 -2 -14 0 -25 4 -25 4 0 6
-15 6 -33 -1 -35 18 -137 29 -155 15 -24 49 15 60 69 2 8 6 21 9 29 17 40 24
99 13 104 -6 3 1 3 15 0 31 -6 62 -12 70 -13 7 -1 33 -80 34 -106 0 -11 4 -26
8 -33 5 -6 4 -12 -1 -12 -10 0 -9 -30 2 -48 4 -6 3 -12 -2 -12 -10 0 -9 -30 2
-48 4 -6 3 -12 -2 -12 -10 0 -9 -30 2 -48 4 -6 4 -12 -1 -12 -4 0 -8 -12 -9
-27 0 -16 -4 -45 -7 -65 l-7 -38 510 0 c281 0 510 2 510 5 0 3 -14 18 -31 34
-34 33 -35 32 46 84 27 17 73 55 101 82 62 60 84 122 78 218 -3 34 -5 69 -5
77 -1 8 -5 31 -10 50 -4 19 -10 44 -12 55 -2 11 -7 32 -11 47 -6 20 1 45 33
110 58 119 60 148 11 203 -14 16 -17 35 -15 90 4 105 15 134 51 135 16 0 34
40 39 89 2 24 7 46 9 48 3 3 1 15 -4 28 -5 13 -6 26 -2 29 12 13 18 188 7 206
-4 6 -8 26 -9 44 -1 18 -5 36 -7 42 -3 5 -5 42 -5 82 1 39 -1 72 -4 72 -3 0
-5 19 -6 43 -1 93 -22 164 -62 210 -20 22 -107 64 -152 72 -45 8 -73 13 -81
14 -3 1 -42 35 -85 76 -135 127 -156 142 -293 210 -41 20 -86 39 -100 42 -13
2 -28 6 -33 9 -10 6 -44 15 -78 19 -56 8 -126 17 -150 18 -14 1 -28 5 -31 10
-3 4 -9 4 -12 0z m746 -2115 c-4 -7 -8 -17 -9 -23 -3 -35 -18 -74 -25 -69 -12
7 -4 51 16 80 16 24 33 35 18 12z"/>
</g>
</svg>
